<?xml version="1.0" encoding="UTF-8" standalone="no"?>
<!-- Created with Inkscape (http://www.inkscape.org/) -->
<svg xmlns:dc="http://purl.org/dc/elements/1.1/" xmlns:cc="http://creativecommons.org/ns#" xmlns:rdf="http://www.w3.org/1999/02/22-rdf-syntax-ns#" xmlns:svg="http://www.w3.org/2000/svg" xmlns="http://www.w3.org/2000/svg" xmlns:sodipodi="http://sodipodi.sourceforge.net/DTD/sodipodi-0.dtd" xmlns:inkscape="http://www.inkscape.org/namespaces/inkscape" width="46.368282mm" height="40.271847mm" viewBox="0 0 164.29707 142.69551" id="svg4216" version="1.1" inkscape:version="0.92.3 (2405546, 2018-03-11)" sodipodi:docname="logo.svg" inkscape:export-filename="/home/marius/QuakeSaver/Documents/Logo/logo_large-2.png" inkscape:export-xdpi="90" inkscape:export-ydpi="90">
  <defs id="defs4218"/>
  <sodipodi:namedview id="base" pagecolor="#ffffff" bordercolor="#666666" borderopacity="1.0" inkscape:pageopacity="0.0" inkscape:pageshadow="2" inkscape:zoom="0.98994949" inkscape:cx="188.63781" inkscape:cy="102.77252" inkscape:document-units="px" inkscape:current-layer="layer1" showgrid="false" inkscape:window-width="1920" inkscape:window-height="1120" inkscape:window-x="0" inkscape:window-y="24" inkscape:window-maximized="1" fit-margin-top="0" fit-margin-left="0" fit-margin-right="0" fit-margin-bottom="0"/>
  <metadata id="metadata4221">
    <rdf:RDF>
      <cc:Work rdf:about="">
        <dc:format>image/svg+xml</dc:format>
        <dc:type rdf:resource="http://purl.org/dc/dcmitype/StillImage"/>
        <dc:title/>
      </cc:Work>
    </rdf:RDF>
  </metadata>
  <g inkscape:label="Layer 1" inkscape:groupmode="layer" id="layer1" transform="translate(-393.73656,-429.17302)">
    <path style="fill:#505050;fill-opacity:1;stroke:#505050;stroke-width:7.5;stroke-miterlimit:4;stroke-dasharray:none;stroke-opacity:1" d="m 553.92245,567.94081 c 0,-0.17389 -0.20444,-0.21671 -0.5345,-0.11196 -0.50811,0.16127 -3.45538,-0.36421 -7.8405,-1.39792 -1.1,-0.25931 -2.45,-0.54211 -3,-0.62846 -0.55,-0.0863 -1.3375,-0.25633 -1.75,-0.37774 -0.4125,-0.12141 -2.6625,-0.68042 -5,-1.24226 -2.3375,-0.56183 -5.0375,-1.24909 -6,-1.52724 -0.9625,-0.27814 -2.48125,-0.71674 -3.375,-0.97465 -0.89375,-0.25791 -2.91875,-0.8093 -4.5,-1.2253 -2.71318,-0.71379 -5.6019,-1.54701 -7,-2.01906 -0.34375,-0.11607 -1.80625,-0.56542 -3.25,-0.99857 -7.8157,-2.34482 -17.24087,-5.54751 -23.10474,-7.85103 l -2.97975,-1.17054 -1.55061,1.53684 c -0.85284,0.84526 -1.76742,1.66692 -2.03239,1.82591 -1.77262,1.06363 -2.303,1.42166 -3.76134,2.53908 -1.68291,1.28948 -2.39245,1.7157 -4.32139,2.59587 -0.61888,0.28239 -1.3209,0.74196 -1.56006,1.02128 -0.23916,0.27931 -0.60621,0.50785 -0.81567,0.50785 -0.36169,0 -0.62857,0.1095 -1.93655,0.79464 -0.30938,0.16205 -1.09908,0.38062 -1.7549,0.48571 -0.65582,0.10508 -1.48662,0.4225 -1.84622,0.70536 -0.3596,0.28286 -1.00427,0.51621 -1.4326,0.51857 -0.42833,0.002 -1.56628,0.20791 -2.52878,0.45678 -0.9625,0.24887 -2.425,0.47708 -3.25,0.50714 -0.825,0.03 -1.91501,0.16449 -2.42224,0.29875 -2.20158,0.58272 -14.30019,0.0704 -15.47436,-0.6553 -0.11984,-0.0741 -0.97964,-0.29217 -1.91065,-0.48468 -1.58101,-0.3269 -5.06007,-1.38346 -6.19275,-1.88069 -0.275,-0.12072 -1.11875,-0.46285 -1.875,-0.76029 -1.55588,-0.61193 -3.54192,-1.60469 -4.5625,-2.28065 -0.37813,-0.25044 -0.99688,-0.66066 -1.375,-0.9116 -0.37813,-0.25094 -1.30625,-0.75073 -2.0625,-1.11064 -0.75625,-0.35992 -1.65625,-0.91782 -2,-1.23979 -0.34375,-0.32196 -1.13821,-0.9753 -1.76547,-1.45185 -1.60962,-1.22291 -4.08723,-3.40832 -5.44627,-4.80396 -0.636,-0.65313 -1.27041,-1.18783 -1.40981,-1.18822 -0.1394,-4e-4 -0.47573,-0.33248 -0.7474,-0.73797 -0.27167,-0.40548 -0.73836,-0.86805 -1.03708,-1.02792 -0.29872,-0.15987 -0.63894,-0.49465 -0.75605,-0.74397 -0.11711,-0.24931 -0.66293,-0.98089 -1.21293,-1.62573 -1.38774,-1.62705 -2.47809,-3.57098 -4.54705,-8.10665 -1.32489,-2.90451 -3.57795,-9.39041 -3.57795,-10.29989 0,-0.25143 -0.12453,-0.45715 -0.27674,-0.45715 -0.15221,0 -0.21447,-0.16231 -0.13835,-0.36068 0.0761,-0.19837 0.028,-0.73275 -0.10692,-1.1875 -1.09847,-3.70211 -2.14195,-10.97585 -2.37809,-16.57682 -0.21715,-5.15065 0.7991,-14.57133 2.03613,-18.875 0.21738,-0.75625 0.56195,-1.99375 0.76571,-2.75 0.83072,-3.0831 0.71162,-2.73726 1.85106,-5.375 0.23759,-0.55 0.5184,-1.28125 0.62403,-1.625 0.10563,-0.34375 0.4662,-1.24375 0.80127,-2 0.33507,-0.75625 0.75886,-1.7125 0.94174,-2.125 0.18289,-0.4125 0.49636,-1.14822 0.69662,-1.63492 0.20025,-0.4867 0.52034,-1.0492 0.71132,-1.25 0.19097,-0.2008 0.6013,-0.87133 0.91184,-1.49008 0.31054,-0.61875 0.84554,-1.575 1.1889,-2.125 0.34335,-0.55 0.86168,-1.44295 1.15185,-1.98433 0.29017,-0.54138 0.69976,-1.15652 0.91021,-1.36697 0.21045,-0.21045 0.56504,-0.79003 0.78797,-1.28796 0.22293,-0.49793 0.57208,-1.08827 0.77589,-1.31186 0.74476,-0.81705 0.99559,-1.15699 0.99672,-1.35083 6e-4,-0.10893 0.31398,-0.53555 0.69632,-0.94805 0.38233,-0.4125 1.02442,-1.2 1.42687,-1.75 0.40244,-0.55 0.93285,-1.20126 1.17868,-1.44724 0.24584,-0.24598 0.44793,-0.58348 0.44909,-0.75 0.001,-0.16652 0.86552,-1.14651 1.92079,-2.17776 1.05527,-1.03125 2.68473,-2.63438 3.62102,-3.5625 0.9363,-0.92813 1.79433,-1.6875 1.90675,-1.6875 0.11243,0 0.53514,-0.31595 0.93937,-0.70211 1.07937,-1.03114 4.506,-3.54789 4.83054,-3.54789 0.15368,0 0.28013,-0.0844 0.281,-0.1875 0.002,-0.28246 0.98704,-0.86202 5.89795,-3.47152 1.67027,-0.88752 7.84241,-3.18238 8.03668,-2.98811 0.07,0.07 0.42229,-0.019 0.78298,-0.19764 0.36069,-0.17865 1.49956,-0.46415 2.53081,-0.63444 1.03125,-0.17029 2.34669,-0.41338 2.9232,-0.54021 2.62787,-0.57808 18.62454,-0.0723 21.3268,0.67433 0.75625,0.20895 1.825,0.49554 2.375,0.63686 0.55,0.14133 1.19534,0.35849 1.4341,0.48259 0.23876,0.1241 0.57626,0.22633 0.75,0.22718 0.17374,8e-4 0.59715,0.14899 0.9409,0.32922 3.01201,1.57919 5.18749,2.77811 5.5,3.03108 0.20625,0.16696 0.88125,0.59431 1.5,0.94968 2.61078,1.49946 7.38591,6.68985 9.42031,10.23957 1.40571,2.45272 3.1014,5.90231 3.35439,6.82391 0.35755,1.30252 1.25948,3.98312 1.48623,4.41719 0.57519,1.10108 1.28905,6.96776 1.30293,10.70781 0.0268,7.22393 -0.73026,9.68232 -6.35143,20.625 -1.86929,3.63893 -4.31064,7.125 -4.98976,7.125 -0.51011,0 -0.51464,-0.82042 -0.008,-1.50526 0.56464,-0.76372 3.12436,-5.77593 4.01905,-7.86974 0.29377,-0.6875 0.64358,-1.44679 0.77736,-1.68731 0.70206,-1.26225 2.29666,-5.64528 2.84698,-7.8254 1.9618,-7.77182 1.30607,-15.55944 -1.9782,-23.49338 -1.43127,-3.45761 -2.51014,-5.19444 -5.12278,-8.24698 -1.83147,-2.13983 -2.78851,-3.0689 -4.38156,-4.25349 -0.54988,-0.40889 -1.21645,-0.9389 -1.48125,-1.17779 -1.49538,-1.34905 -7.01485,-4.08323 -10.15658,-5.03126 -4.24026,-1.27952 -7.2562,-1.71436 -11.98737,-1.72834 -9.01275,-0.0266 -15.8993,1.92977 -24.67161,7.00895 -1.81282,1.04963 -3.74137,2.31539 -4.64628,3.0495 -0.59764,0.48482 -2.81574,2.28928 -3.43211,2.79207 -1.06431,0.86818 -5.57149,5.33991 -6.625,6.5729 -0.55,0.6437 -1.53113,1.7554 -2.18029,2.47044 -0.64916,0.71505 -1.18354,1.39697 -1.1875,1.51539 -0.004,0.11842 -0.45721,0.75278 -1.00721,1.4097 -0.55,0.65691 -1,1.28065 -1,1.38609 0,0.10544 -0.26141,0.53983 -0.5809,0.96531 -0.3195,0.42548 -0.65347,0.97047 -0.74216,1.2111 -0.0887,0.24062 -0.27728,0.4375 -0.41909,0.4375 -0.14182,0 -0.25785,0.21122 -0.25785,0.46939 0,0.25816 -0.14878,0.59286 -0.33063,0.74378 -0.18185,0.15092 -0.82853,1.26157 -1.43707,2.46812 -0.60854,1.20654 -1.2337,2.32881 -1.38924,2.49394 -0.15555,0.16513 -0.35772,0.6995 -0.44926,1.1875 -0.0916,0.488 -0.26166,0.88727 -0.37803,0.88727 -0.11636,0 -0.28699,0.30049 -0.37917,0.66777 -0.0922,0.36727 -0.38562,0.94494 -0.6521,1.28371 -0.26647,0.33877 -0.4845,0.76952 -0.4845,0.95723 0,0.18771 -0.1125,0.34129 -0.25,0.34129 -0.1375,0 -0.25,0.19996 -0.25,0.44437 0,0.24441 -0.18712,0.71153 -0.41582,1.03805 -0.22871,0.32652 -0.43825,0.96287 -0.46564,1.41412 -0.0274,0.45124 -0.23403,1.00466 -0.45918,1.22981 -0.22515,0.22515 -0.40936,0.63028 -0.40936,0.9003 0,0.27002 -0.17598,0.75952 -0.39106,1.08778 -0.21509,0.32826 -0.45583,1.2243 -0.53498,1.9912 -0.0792,0.7669 -0.23916,1.39437 -0.35558,1.39437 -0.28917,0 -0.96838,1.67685 -0.96838,2.39077 0,0.31885 -0.1125,0.64925 -0.25,0.73423 -0.1375,0.085 -0.25,0.63162 -0.25,1.21475 0,0.58314 -0.11536,1.17561 -0.25635,1.3166 -0.141,0.14099 -0.30486,0.64162 -0.36415,1.1125 -0.0593,0.47088 -0.18699,1.30615 -0.28377,1.85615 -0.0968,0.55 -0.2021,1.5625 -0.23402,2.25 -0.0319,0.6875 -0.14595,2.20625 -0.25341,3.375 -0.21252,2.31142 -0.21398,2.54462 -0.0417,6.65725 0.0641,1.53024 0.18157,2.88749 0.26106,3.0161 0.0795,0.12862 0.16397,0.78911 0.18774,1.46775 0.0238,0.67864 0.15673,1.6839 0.29547,2.2339 0.13874,0.55 0.41305,1.95625 0.60957,3.125 0.55031,3.27277 0.62467,3.60273 0.88573,3.93041 0.24667,0.30962 0.5615,1.37933 0.94019,3.19459 0.26813,1.28526 1.52585,4.8896 2.26816,6.5 1.59132,3.45228 2.65512,5.52774 3.06978,5.98905 0.2526,0.28102 0.67899,0.9047 0.94754,1.38595 0.8379,1.50156 2.80248,4.09325 4.02683,5.31222 0.51775,0.51547 0.94136,0.98425 0.94136,1.04172 0,0.0575 0.70313,0.77572 1.5625,1.59609 2.92942,2.79648 8.0884,6.43014 11.0625,7.79173 10.56142,4.83519 24.00793,6.51836 33.875,4.24031 4.45049,-1.0275 9.30924,-3.19813 13.23601,-5.91314 1.03894,-0.71834 2.45149,-1.69594 3.13899,-2.17245 0.6875,-0.4765 1.69213,-1.32051 2.23252,-1.87557 l 0.98252,-1.0092 -1.10752,-0.5227 c -0.60914,-0.28749 -1.38877,-0.66644 -1.73252,-0.84212 -0.34375,-0.17568 -2.64297,-1.32122 -5.10937,-2.54565 -2.4664,-1.22444 -4.86202,-2.47937 -5.3236,-2.78874 -0.46158,-0.30938 -0.8883,-0.5625 -0.94828,-0.5625 -0.06,0 -0.72457,-0.39375 -1.47689,-0.875 -0.75231,-0.48125 -1.43424,-0.875 -1.5154,-0.875 -0.0812,0 -0.28344,-0.11218 -0.44951,-0.24929 -0.16607,-0.13711 -0.9207,-0.6934 -1.67695,-1.2362 -2.04281,-1.46623 -3.15649,-2.42351 -5.40287,-4.6441 -2.09989,-2.07578 -2.78815,-3.14561 -3.34493,-5.19938 -0.28777,-1.06147 -0.27803,-1.25234 0.0822,-1.6126 0.37817,-0.37818 0.46306,-0.35649 1.13888,0.29099 0.40163,0.3848 0.80152,1.07955 0.88863,1.5439 0.31475,1.67776 0.95388,2.70072 2.81935,4.5125 1.04435,1.0143 1.97097,1.84418 2.05915,1.84418 0.14,0 2.19832,1.29592 6.31937,3.97869 0.65165,0.42422 1.31779,0.77131 1.48032,0.77131 0.16252,0 0.47353,0.16111 0.69113,0.35803 0.50231,0.45459 5.91405,3.23402 7.89374,4.05417 0.825,0.34178 2.175,0.96521 3,1.38539 0.825,0.42019 2.04332,0.91105 2.70737,1.0908 l 1.20737,0.32683 1.32527,-1.42011 c 0.7289,-0.78106 1.89922,-2.15136 2.6007,-3.04511 0.70149,-0.89375 1.5868,-2.01015 1.96736,-2.48088 1.07419,-1.32871 3.87848,-5.49303 4.72675,-7.01912 0.42035,-0.75625 1.43134,-2.55625 2.24665,-4 1.93983,-3.43508 2.50231,-4.65186 4.47223,-9.67454 2.22691,-5.67791 2.10458,-5.44389 4.45134,-8.51554 0.38777,-0.50755 0.76793,-1.23726 0.84479,-1.62157 0.0769,-0.38432 0.23772,-0.75931 0.35746,-0.83331 0.11974,-0.074 0.21771,-0.35498 0.21771,-0.6244 0,-0.26942 0.28381,-1.03262 0.63068,-1.696 0.35002,-0.66939 0.79808,-2.1971 1.00684,-3.4329 0.40937,-2.42344 0.76381,-3.35174 1.27973,-3.35174 0.44786,0 0.42244,0.75894 -0.15487,4.625 -0.74563,4.99311 -0.93449,5.73551 -2.92562,11.5 -0.94634,2.73971 -5.0544,11.40637 -7.34712,15.5 -0.67948,1.21319 -2.45822,3.82108 -2.66973,3.91419 -0.1072,0.0472 -0.46741,0.59206 -0.80048,1.21081 -0.33306,0.61875 -0.82019,1.40625 -1.08252,1.75 -0.26233,0.34375 -0.85233,1.22542 -1.31113,1.95927 -0.45879,0.73385 -1.01302,1.52135 -1.23161,1.75 -0.2186,0.22865 -0.93109,1.14698 -1.58331,2.04073 -0.65222,0.89375 -1.65888,2.10097 -2.23701,2.68273 -1.18793,1.19536 -1.67659,1.97426 -1.36098,2.16932 0.11783,0.0728 1.04625,0.4302 2.06318,0.79417 1.01692,0.36398 1.97479,0.76273 2.1286,0.88612 0.1538,0.12339 1.095,0.43841 2.09154,0.70004 0.99654,0.26164 1.93383,0.59763 2.08285,0.74666 0.14903,0.14903 0.49941,0.27096 0.77863,0.27096 0.27922,0 1.07234,0.21236 1.7625,0.47191 1.21227,0.45591 2.73019,0.93478 10.75483,3.39287 2.0625,0.63178 4.0875,1.26842 4.5,1.41475 0.85825,0.30445 1.94882,0.64383 6.5,2.02278 1.7875,0.54159 3.53125,1.07583 3.875,1.1872 0.34375,0.11138 1.075,0.32484 1.625,0.47438 0.55,0.14953 2.45986,0.73493 4.24413,1.30088 3.24006,1.02771 4.44975,1.36745 11.50587,3.23146 7.76534,2.05135 12.91027,3.89345 12.16344,4.35501 -0.15864,0.098 -0.28844,0.0515 -0.28844,-0.10334 z" id="path4775" inkscape:connector-curvature="0"/>
  </g>
</svg>
